<svg xmlns="http://www.w3.org/2000/svg"><symbol id="icon-arrow-bottom" viewBox="0 0 18 19">
    <title>
        Fill 7
    </title>
    <path d="M8.68 18.25l8.678-8.68h-3.272V0H3.418v9.57H0z" fill-rule="evenodd"/>
</symbol><symbol id="icon-arrow-top" viewBox="0 0 18 20">
    <title>
        Fill 4
    </title>
    <path d="M8.68.772L0 9.452h3.273v9.57H13.94v-9.57h3.418z" fill-rule="evenodd"/>
</symbol><symbol id="icon-left-arrow" viewBox="0 0 36 34">
    <title>
        Fill 7
    </title>
    <path d="M0 16.902l16.904 16.902v-6.373h18.638V6.657H16.904V0z" fill-rule="evenodd" opacity=".34"/>
</symbol><symbol id="icon-pulse-1-original" viewBox="0 0 95 67">
    <title>
        Path 3
    </title>
    <path d="M29.485 43.734l-12.335.13 1.112-4.584-5.705 1.731S1 40.52 1 29.083c0-11.436 6.371-13.547 6.371-13.547l.99 3.158s3.05-6.723 8.79-7.946c5.74-1.222 13.232-1.112 15.417.074 2.186 1.185 3.214-2.93 5.26-3.445 2.046-.513 4.769.926 4.769.926l5.556-5.12 2.843 2.906.556-4.768s15.114-.26 16.845 4.62c1.732 4.88 2.713 6.38 2.713 6.38s4.305-.86 6.567-.75c2.261.112 4.343 1.289 4.343 1.289l.184-2.112s9.445 2.086 11.122 6.964c1.677 4.879-1.24 4.39-1.24 4.39l1.611 2.158s-2.343 6.843-6.918 9.446c-4.575 2.602-6.214 3.092-6.214 3.092l-2.417-2.166-.25 2.907-10.149.056s.917 3.974-.444 5.121c-1.362 1.148-4.442 2.725-7.297 3.223-2.855.498-6.196-.87-6.196-.87L38.126 66.813l-8.64-23.08z" stroke="#979797" fill-rule="evenodd"/>
</symbol><symbol id="icon-pulse-2-original" viewBox="0 0 47 29">
    <title>
        Path 6
    </title>
    <path d="M.636 27.71l7.103-3.902.903.575.732-.482-.436-.779 9.34-4.741-7.305-4.352 12.262-7.057 3.387.981-.762-2.02L35.387.677S46.175 11.546 45.74 11.546c-.436 0-5.488 1.911-5.488 1.911s-3.378-.592-4.121-.592c-.744 0-2.29.949-2.29.949l.81.842-7.759 2.41 5.425 6.343-10.973 2.44-3.28-2.114 1.82 2.038L.637 27.71z" stroke="#979797" fill-rule="evenodd"/>
</symbol><symbol id="icon-pulse-3-original" viewBox="0 0 67 44">
    <title>
        Group 6
    </title>
    <g stroke="#979797" fill-rule="evenodd">
        <path d="M9.84 43.117l15.781-.31 3.338-2.69 1.607 1.574S47.75 37 53.376 35.023c5.625-1.977 13.376-6.705 13.376-6.705s-15.59 1.945-16.613 1.945c-1.023 0-5.38-1.111-5.38-1.111s-14.577 3.394-19.425 6.08c-4.848 2.685-15.493 7.885-15.493 7.885z"/>
        <path d="M.613 30.333s12.997 1.231 14.02.615c1.024-.615 6.668-4.232 9.515-4.232 2.848 0 14.822-3.519 18.1-5.681 3.279-2.163 16.869-8.715 16.869-8.715s-14.498 2.135-15.683 1.422c-1.185-.713-2.894-3.292-4.788-2.357-1.894.935-3.162 3.246-3.162 3.246s-4.272-.463-4.945.495c-.674.959-2.107 3.158-2.107 3.158s-5.288-.93-9.543.524C14.633 20.26.613 30.333.613 30.333z"/>
        <path d="M3.628 12.686s11.08-.027 15.812-1.204c4.733-1.176 11.058-5.686 11.058-5.686l1.7.185 7.972-4.574s-11.909.546-20.373 2.56c-8.464 2.014-16.17 8.719-16.17 8.719z"/>
    </g>
</symbol><symbol id="icon-pulse-4-original" viewBox="0 0 39 40">
    <title>
        Path 5
    </title>
    <path d="M14.207 14.532l.205-4.364 1.798-.874-1.95-3.491.034-4.566 10.502.188-.529 13.94 13.205-.974.308 11.304-6.705-.326-.96-1.575-1.3 1.386-3.199-.154-1.831-.154.854 13.666-11.784-.256.924-13.344-5.046-.564s-.664-1.3-.941-1.3c-.277 0-2.432 1.592-2.432 1.592l-4.499-.102-.105-10.227 13.451.195z" stroke="#979797" fill-rule="evenodd" opacity=".303"/>
</symbol><symbol id="icon-pulse-5-original" viewBox="0 0 53 24">
    <title>
        Path 4
    </title>
    <path d="M1 8.3s7.584 8.28 9.39 8.28c1.805 0 2.318-.247 2.318-.247l.37 1.746s9.047 4.49 17.184 4.49c8.138 0 12.836-1.531 12.836-1.531l.463-2.149 1.884 1.637 6.823-3.366-6.13-9.11-7.04 2.98s-9.594 3.162-17.436.541C13.821 8.951 9.36 1 9.36 1L1 8.3z" stroke="#979797" fill-rule="evenodd"/>
</symbol><symbol id="icon-right-arrow" viewBox="0 0 36 34">
    <title>
        Fill 7
    </title>
    <path d="M35.542 16.902L18.638 0v6.374H0v20.773h18.638v6.657z" fill-rule="evenodd" opacity=".34"/>
</symbol><symbol id="icon-send" viewBox="0 0 58 51">
    <title>
        send
    </title>
    <g fill-rule="evenodd">
        <path d="M19.26 50.025a.94.94 0 0 0 .5.83.933.933 0 0 0 .964-.055l6.442-4.41-7.905-3.778v7.413z"/>
        <path d="M57.583.286a.937.937 0 0 0-1.046-.153L.924 27.484a1.66 1.66 0 0 0 .018 2.986L15.6 37.472l29.307-24.15L19.23 39.207 37.49 47.93a1.647 1.647 0 0 0 1.317.047c.426-.169.764-.507.932-.933L57.817 1.32a.936.936 0 0 0-.234-1.034z"/>
    </g>
</symbol></svg>