<svg xmlns="http://www.w3.org/2000/svg" xmlns:xlink="http://www.w3.org/1999/xlink"><defs>
        <path id="a" d="M25.833 26.634V.024H0v26.61h25.833z"/>
    </defs><symbol id="icon-arrow-bottom" viewBox="0 0 18 19">
    <title>
        Fill 7
    </title>
    <path d="M8.68 18.25l8.678-8.68h-3.272V0H3.418v9.57H0z" fill-rule="evenodd"/>
</symbol><symbol id="icon-arrow-top" viewBox="0 0 18 20">
    <title>
        Fill 4
    </title>
    <path d="M8.68.772L0 9.452h3.273v9.57H13.94v-9.57h3.418z" fill-rule="evenodd"/>
</symbol><symbol id="icon-back" viewBox="0 0 227 32">
    <title>
        back
    </title>
    <g fill-rule="evenodd">
        <g stroke="#7E8C9B" stroke-width="2" stroke-linecap="square">
            <path d="M3.5 15h22.986"/>
            <path d="M2 15l6 6"/>
            <path d="M2 15l6-6"/>
        </g>
        <text font-family="Roboto-Regular, Roboto" font-size="14" fill="#7E8C9B" transform="translate(1 -5)">
            <tspan x="42" y="15">&#x41A; &#x43F;&#x440;&#x43E;&#x441;&#x43C;&#x43E;&#x442;&#x440;&#x443;</tspan> <tspan x="42" y="34">&#x441;&#x446;&#x435;&#x43D;&#x430;&#x440;&#x43D;&#x43E;&#x439; &#x442;&#x430;&#x43A;&#x442;&#x438;&#x43A;&#x438; &#x432;&#x438;&#x437;&#x438;&#x442;&#x43E;&#x432;</tspan>
        </text>
    </g>
</symbol><symbol id="icon-instruction" viewBox="0 0 11 21">
    <title>
        Shape
    </title>
    <path d="M7.87.23c1.411 0 2.116.95 2.116 2.034 0 1.354-1.225 2.607-2.821 2.607-1.337 0-2.117-.779-2.08-2.065C5.085 1.72 6.014.23 7.87.23zM3.526 21c-1.114 0-1.931-.677-1.151-3.659l1.279-5.287c.222-.846.259-1.185 0-1.185-.335 0-1.781.585-2.636 1.161l-.556-.915c2.71-2.27 5.828-3.6 7.164-3.6 1.114 0 1.3 1.321.743 3.354l-1.464 5.558c-.26.982-.148 1.32.11 1.32.335 0 1.43-.407 2.507-1.254l.632.847C7.518 19.982 4.64 21 3.526 21z" fill-rule="evenodd"/>
</symbol><symbol id="icon-left-arrow" viewBox="0 0 36 34">
    <title>
        Fill 7
    </title>
    <path d="M0 16.902l16.904 16.902v-6.373h18.638V6.657H16.904V0z" fill-rule="evenodd" opacity=".34"/>
</symbol><symbol id="icon-logo" viewBox="0 0 147 43">
    <title>
        Group 2
    </title>
    
    <g fill-rule="evenodd">
        <text transform="translate(30.654 8.972)" font-size="23" font-family="Arial-BoldMT, Arial" font-weight="bold">
            <tspan x="0" y="21">nullgravity</tspan>
        </text>
        <g transform="translate(0 .038)">
            <mask id="b" fill="#fff">
                <use xlink:href="#a"/>
            </mask>
            <path d="M18.098.572v4.381h-.1C16.53 2.265 13.851.025 9.2.025 2.679.025 0 3.36 0 9.93v16.703h8.038v-14.96c0-1.892.101-3.435.809-4.43.758-1.046 1.972-1.544 3.488-1.544 3.59 0 5.46 2.24 5.46 6.123v14.81h8.038V.574h-7.735z" mask="url(#b)"/>
        </g>
        <path d="M17.795 31.326c0 4.73-1.846 6.472-4.866 6.472-2.966 0-4.385-1.145-4.89-3.136H0c.404 5.028 5.078 8.313 12.828 8.313 8.772 0 13.005-3.982 13.005-12.047v-1.942h-8.038v2.34z"/>
    </g>
</symbol><symbol id="icon-pulse-1-original" viewBox="0 0 95 67">
    <title>
        Path 3
    </title>
    <path d="M29.485 43.734l-12.335.13 1.112-4.584-5.705 1.731S1 40.52 1 29.083c0-11.436 6.371-13.547 6.371-13.547l.99 3.158s3.05-6.723 8.79-7.946c5.74-1.222 13.232-1.112 15.417.074 2.186 1.185 3.214-2.93 5.26-3.445 2.046-.513 4.769.926 4.769.926l5.556-5.12 2.843 2.906.556-4.768s15.114-.26 16.845 4.62c1.732 4.88 2.713 6.38 2.713 6.38s4.305-.86 6.567-.75c2.261.112 4.343 1.289 4.343 1.289l.184-2.112s9.445 2.086 11.122 6.964c1.677 4.879-1.24 4.39-1.24 4.39l1.611 2.158s-2.343 6.843-6.918 9.446c-4.575 2.602-6.214 3.092-6.214 3.092l-2.417-2.166-.25 2.907-10.149.056s.917 3.974-.444 5.121c-1.362 1.148-4.442 2.725-7.297 3.223-2.855.498-6.196-.87-6.196-.87L38.126 66.813l-8.64-23.08z" stroke="#979797" fill-rule="evenodd"/>
</symbol><symbol id="icon-pulse-2-original" viewBox="0 0 47 29">
    <title>
        Path 6
    </title>
    <path d="M.636 27.71l7.103-3.902.903.575.732-.482-.436-.779 9.34-4.741-7.305-4.352 12.262-7.057 3.387.981-.762-2.02L35.387.677S46.175 11.546 45.74 11.546c-.436 0-5.488 1.911-5.488 1.911s-3.378-.592-4.121-.592c-.744 0-2.29.949-2.29.949l.81.842-7.759 2.41 5.425 6.343-10.973 2.44-3.28-2.114 1.82 2.038L.637 27.71z" stroke="#979797" fill-rule="evenodd"/>
</symbol><symbol id="icon-pulse-3-original" viewBox="0 0 67 44">
    <title>
        Group 6
    </title>
    <g stroke="#979797" fill-rule="evenodd">
        <path d="M9.84 43.117l15.781-.31 3.338-2.69 1.607 1.574S47.75 37 53.376 35.023c5.625-1.977 13.376-6.705 13.376-6.705s-15.59 1.945-16.613 1.945c-1.023 0-5.38-1.111-5.38-1.111s-14.577 3.394-19.425 6.08c-4.848 2.685-15.493 7.885-15.493 7.885z"/>
        <path d="M.613 30.333s12.997 1.231 14.02.615c1.024-.615 6.668-4.232 9.515-4.232 2.848 0 14.822-3.519 18.1-5.681 3.279-2.163 16.869-8.715 16.869-8.715s-14.498 2.135-15.683 1.422c-1.185-.713-2.894-3.292-4.788-2.357-1.894.935-3.162 3.246-3.162 3.246s-4.272-.463-4.945.495c-.674.959-2.107 3.158-2.107 3.158s-5.288-.93-9.543.524C14.633 20.26.613 30.333.613 30.333z"/>
        <path d="M3.628 12.686s11.08-.027 15.812-1.204c4.733-1.176 11.058-5.686 11.058-5.686l1.7.185 7.972-4.574s-11.909.546-20.373 2.56c-8.464 2.014-16.17 8.719-16.17 8.719z"/>
    </g>
</symbol><symbol id="icon-pulse-4-original" viewBox="0 0 39 40">
    <title>
        Path 5
    </title>
    <path d="M14.207 14.532l.205-4.364 1.798-.874-1.95-3.491.034-4.566 10.502.188-.529 13.94 13.205-.974.308 11.304-6.705-.326-.96-1.575-1.3 1.386-3.199-.154-1.831-.154.854 13.666-11.784-.256.924-13.344-5.046-.564s-.664-1.3-.941-1.3c-.277 0-2.432 1.592-2.432 1.592l-4.499-.102-.105-10.227 13.451.195z" stroke="#979797" fill-rule="evenodd" opacity=".303"/>
</symbol><symbol id="icon-pulse-5-original" viewBox="0 0 53 24">
    <title>
        Path 4
    </title>
    <path d="M1 8.3s7.584 8.28 9.39 8.28c1.805 0 2.318-.247 2.318-.247l.37 1.746s9.047 4.49 17.184 4.49c8.138 0 12.836-1.531 12.836-1.531l.463-2.149 1.884 1.637 6.823-3.366-6.13-9.11-7.04 2.98s-9.594 3.162-17.436.541C13.821 8.951 9.36 1 9.36 1L1 8.3z" stroke="#979797" fill-rule="evenodd"/>
</symbol><symbol id="icon-right-arrow" viewBox="0 0 36 34">
    <title>
        Fill 7
    </title>
    <path d="M35.542 16.902L18.638 0v6.374H0v20.773h18.638v6.657z" fill-rule="evenodd" opacity=".34"/>
</symbol><symbol id="icon-send" viewBox="0 0 58 51">
    <title>
        send
    </title>
    <g fill-rule="evenodd">
        <path d="M19.26 50.025a.94.94 0 0 0 .5.83.933.933 0 0 0 .964-.055l6.442-4.41-7.905-3.778v7.413z"/>
        <path d="M57.583.286a.937.937 0 0 0-1.046-.153L.924 27.484a1.66 1.66 0 0 0 .018 2.986L15.6 37.472l29.307-24.15L19.23 39.207 37.49 47.93a1.647 1.647 0 0 0 1.317.047c.426-.169.764-.507.932-.933L57.817 1.32a.936.936 0 0 0-.234-1.034z"/>
    </g>
</symbol><symbol id="icon-settings" viewBox="0 0 40 40">
    <title>
        Capa_1
    </title>
    <g fill-rule="evenodd">
        <path d="M39.191 29.095l-1.737-.997a10.91 10.91 0 0 0 .186-1.952c0-.667-.07-1.318-.186-1.95l1.737-.997a1.594 1.594 0 0 0 .588-2.186l-2.037-3.508a1.615 1.615 0 0 0-2.198-.587l-1.736.997a10.93 10.93 0 0 0-3.403-1.95v-1.997c0-.063-.03-.118-.037-.18-.21.176-.43.339-.672.477l-.392.225c.013.242.018.483.018.724 0 .24-.005.483-.018.726l.392.225a4.454 4.454 0 0 1 2.077 2.689 4.374 4.374 0 0 1-.445 3.361l-2.252 3.874a4.474 4.474 0 0 1-6.084 1.621l-.402-.23c-.406.26-.825.5-1.256.719v.461c0 2.442-1.998 4.429-4.456 4.429h-2.096l.989 1.701a1.615 1.615 0 0 0 2.198.586l1.738-.998a10.863 10.863 0 0 0 3.402 1.948v1.997c0 .884.72 1.6 1.61 1.6h4.075c.889 0 1.611-.716 1.611-1.6v-1.997a10.875 10.875 0 0 0 3.4-1.948l1.738.997c.77.442 1.754.18 2.199-.586l2.037-3.508a1.594 1.594 0 0 0-.588-2.186z"/>
        <path d="M14.63 10.41c-2.665 0-4.833 2.155-4.833 4.803 0 2.649 2.168 4.804 4.832 4.804 2.664 0 4.832-2.155 4.832-4.804 0-2.648-2.168-4.803-4.832-4.803z"/>
        <path d="M18.656 28.66v-2.206a12.049 12.049 0 0 0 3.756-2.15l1.919 1.1a1.78 1.78 0 0 0 2.427-.647l2.25-3.873c.236-.406.301-.888.178-1.341a1.766 1.766 0 0 0-.827-1.072l-1.92-1.102a11.96 11.96 0 0 0 .205-2.156c0-.737-.076-1.454-.204-2.154l1.917-1.1c.41-.235.706-.62.829-1.073a1.754 1.754 0 0 0-.178-1.34l-2.25-3.875a1.773 1.773 0 0 0-1.54-.883c-.308 0-.616.08-.889.237l-1.915 1.1a12.057 12.057 0 0 0-3.758-2.154V1.766C18.656.791 17.86 0 16.879 0h-4.502C11.395 0 10.6.791 10.6 1.767V3.97a12 12 0 0 0-3.756 2.154l-1.92-1.101a1.784 1.784 0 0 0-2.427.647L.247 9.545a1.76 1.76 0 0 0 .65 2.414l1.919 1.1c-.128.7-.204 1.417-.204 2.154 0 .738.076 1.457.204 2.157L.897 18.47a1.76 1.76 0 0 0-.65 2.413l2.25 3.875a1.78 1.78 0 0 0 2.427.646l1.92-1.1c1.1.928 2.37 1.658 3.756 2.15v2.205c0 .976.795 1.767 1.777 1.767h4.502c.982 0 1.777-.791 1.777-1.767zM7.119 15.213c0-4.116 3.369-7.464 7.51-7.464 4.142 0 7.511 3.348 7.511 7.464 0 4.117-3.369 7.466-7.51 7.466-4.142 0-7.511-3.35-7.511-7.466z"/>
    </g>
</symbol><symbol id="icon-tutorial-back" viewBox="0 0 285 16">
    <title>
        tutorial-back
    </title>
    <g fill-rule="evenodd">
        <g stroke="#7E8C9B" stroke-width="2" stroke-linecap="square">
            <path d="M3.5 8h22.986"/>
            <path d="M2 8l6 6"/>
            <path d="M2 8l6-6"/>
        </g>
        <text font-family="Roboto-Regular, Roboto" font-size="14" fill="#7E8C9B" transform="translate(1 -3)">
            <tspan x="41" y="15">&#x412;&#x435;&#x440;&#x43D;&#x443;&#x442;&#x44C;&#x441;&#x44F; &#x43A; &#x43F;&#x440;&#x43E;&#x441;&#x43C;&#x43E;&#x442;&#x440;&#x443; &#x43F;&#x440;&#x435;&#x437;&#x435;&#x43D;&#x442;&#x430;&#x446;&#x438;&#x438;</tspan>
        </text>
    </g>
</symbol></svg>