<?xml version="1.0" encoding="UTF-8" standalone="no"?>
<svg width="11px" height="21px" viewBox="0 0 11 21" version="1.1" xmlns="http://www.w3.org/2000/svg" xmlns:xlink="http://www.w3.org/1999/xlink">
    <!-- Generator: Sketch 39 (31667) - http://www.bohemiancoding.com/sketch -->
    <title>Shape</title>
    <desc>Created with Sketch.</desc>
    <defs></defs>
    <g id="Page-1" stroke="none" stroke-width="1" fill="none" fill-rule="evenodd">
        <g id="4-четвертый-5" transform="translate(-94.000000, -732.000000)" fill="#162A45">
            <g id="Основа" transform="translate(81.000000, 39.000000)">
                <g id="инструкция" transform="translate(1.000000, 687.000000)">
                    <g id="Capa_1">
                        <path d="M19.8702542,6.23076923 C21.2811171,6.23076923 21.9863378,7.1793 21.9863378,8.26386923 C21.9863378,9.61843846 20.7613144,10.8714462 19.1648227,10.8714462 C17.8281271,10.8714462 17.0483177,10.0921846 17.0854013,8.80553077 C17.0854013,7.72116923 18.0135452,6.23076923 19.8702542,6.23076923 L19.8702542,6.23076923 Z M15.5257826,27 C14.4117993,27 13.5949064,26.3225077 14.3747157,23.3415 L15.6536789,18.0542769 C15.8763913,17.2075154 15.9128428,16.8689769 15.6536789,16.8689769 C15.3190836,16.8689769 13.8730334,17.4538385 13.0177926,18.0299769 L12.4615385,17.1150923 C15.1718027,14.8458462 18.2899866,13.5149538 19.6262609,13.5149538 C20.7398227,13.5149538 20.9258729,14.8360846 20.3689866,16.8687692 L18.9048161,22.4266154 C18.6448094,23.4087923 18.7566923,23.7473308 19.0158562,23.7473308 C19.3500301,23.7473308 20.445893,23.3396308 21.5223712,22.4926615 L22.1538462,23.3398385 C19.5175385,25.9823077 16.6397659,27 15.5257826,27 L15.5257826,27 Z" id="Shape"></path>
                    </g>
                </g>
            </g>
        </g>
    </g>
</svg>