<?xml version="1.0" encoding="UTF-8" standalone="no"?>
<svg width="67px" height="44px" viewBox="0 0 67 44" version="1.1" xmlns="http://www.w3.org/2000/svg" xmlns:xlink="http://www.w3.org/1999/xlink">
    <!-- Generator: Sketch 39 (31667) - http://www.bohemiancoding.com/sketch -->
    <title>Group 6</title>
    <desc>Created with Sketch.</desc>
    <defs></defs>
    <g id="Page-1" stroke="none" stroke-width="1" fill="none" fill-rule="evenodd">
        <g id="10-десятый-2" transform="translate(-1001.000000, -226.000000)" stroke="#979797" fill="#D8D8D8">
            <g id="black-panel" transform="translate(81.000000, -62.000000)">
                <g id="icons" transform="translate(453.000000, 0.000000)">
                    <g id="Group-6" transform="translate(467.000000, 289.000000)">
                        <path d="M9.84082031,42.1166992 L25.6210938,41.8066406 L28.9594727,39.1162109 L30.5664062,40.690918 C30.5664062,40.690918 47.7495117,36 53.3754883,34.0229492 C59.0014648,32.0458984 66.7524414,27.3183594 66.7524414,27.3183594 C66.7524414,27.3183594 51.1616211,29.2631836 50.1386719,29.2631836 C49.1157227,29.2631836 44.7583008,28.1518555 44.7583008,28.1518555 C44.7583008,28.1518555 30.1816406,31.5458984 25.3339844,34.2314453 C20.4863281,36.9169922 9.84082031,42.1166992 9.84082031,42.1166992 Z" id="Path-7"></path>
                        <path d="M0.612792969,29.3325195 C0.612792969,29.3325195 13.6098633,30.5639648 14.6333008,29.9482422 C15.6567383,29.3325195 21.3007813,25.7158203 24.1484375,25.7158203 C26.9960937,25.7158203 38.9702148,22.1972656 42.2485352,20.034668 C45.5268555,17.8720703 59.1166992,11.3203125 59.1166992,11.3203125 C59.1166992,11.3203125 44.6186523,13.4545898 43.4335938,12.7416992 C42.2485352,12.0288086 40.5395508,9.45019533 38.6459961,10.3852539 C36.7524414,11.3203125 35.4838867,13.6308594 35.4838867,13.6308594 C35.4838867,13.6308594 31.2124023,13.1679685 30.5385742,14.1264648 C29.8647461,15.0849612 28.4316406,17.2841797 28.4316406,17.2841797 C28.4316406,17.2841797 23.144043,16.3540037 18.8886719,17.8076172 C14.6333008,19.2612307 0.612792969,29.3325195 0.612792969,29.3325195 Z" id="Path-8"></path>
                        <path d="M3.62792969,11.6860352 C3.62792969,11.6860352 14.7080078,11.6586914 19.4404297,10.4824219 C24.1728516,9.30615234 30.4975586,4.79638672 30.4975586,4.79638672 L32.1972656,4.98144531 L40.1704102,0.406738281 C40.1704102,0.406738281 28.2612305,0.953125 19.796875,2.96728516 C11.3325195,4.98144531 3.62792969,11.6860352 3.62792969,11.6860352 Z" id="Path-9"></path>
                    </g>
                </g>
            </g>
        </g>
    </g>
</svg>