<?xml version="1.0" encoding="UTF-8" standalone="no"?>
<svg width="39px" height="40px" viewBox="0 0 39 40" version="1.1" xmlns="http://www.w3.org/2000/svg" xmlns:xlink="http://www.w3.org/1999/xlink">
    <!-- Generator: Sketch 39 (31667) - http://www.bohemiancoding.com/sketch -->
    <title>Path 5</title>
    <desc>Created with Sketch.</desc>
    <defs></defs>
    <g id="Page-1" stroke="none" stroke-width="1" fill="none" fill-rule="evenodd" opacity="0.303404851">
        <g id="10-десятый-2" transform="translate(-984.000000, -127.000000)" stroke="#979797" fill="#D8D8D8">
            <g id="black-panel" transform="translate(81.000000, -62.000000)">
                <g id="icons" transform="translate(453.000000, 0.000000)">
                    <g id="Group-8">
                        <path d="M464.207117,203.531728 L464.412419,199.168458 L466.210364,198.293964 L464.260944,194.802753 L464.294214,190.237427 L474.795708,190.424606 L474.267172,204.365648 L487.47194,203.390803 L487.779757,214.69511 L481.074858,214.36917 L480.11543,212.794379 L478.814916,214.179557 L475.616374,214.025648 L473.784888,213.871739 L474.639095,227.538234 L462.855209,227.28181 L463.778661,213.93828 L458.733216,213.374038 C458.733216,213.374038 458.068893,212.073523 457.791911,212.073523 C457.51493,212.073523 455.360209,213.666438 455.360209,213.666438 L450.861153,213.563922 L450.755932,203.336975 L464.207117,203.531728 Z" id="Path-5"></path>
                    </g>
                </g>
            </g>
        </g>
    </g>
</svg>