<?xml version="1.0" encoding="UTF-8" standalone="no"?>
<svg width="58px" height="51px" viewBox="0 0 58 51" version="1.1" xmlns="http://www.w3.org/2000/svg" xmlns:xlink="http://www.w3.org/1999/xlink">
    <!-- Generator: Sketch 39 (31667) - http://www.bohemiancoding.com/sketch -->
    <title>send</title>
    <desc>Created with Sketch.</desc>
    <defs></defs>
    <g id="Page-1" stroke="none" stroke-width="1" fill="none" fill-rule="evenodd">
        <g id="17-семнадцатый" transform="translate(-890.000000, -398.000000)" fill="#3390FC">
            <g id="Group-4" transform="translate(817.000000, 322.000000)">
                <g id="send" transform="translate(73.000000, 76.000000)">
                    <g id="Capa_1">
                        <g id="XMLID_51_">
                            <path d="M19.2605605,50.0253724 C19.2605605,50.3731103 19.4531532,50.6920069 19.7594073,50.8545034 C20.0654274,51.0168828 20.4375161,50.9960138 20.7235403,50.7996345 L27.1655161,46.3894828 L19.2606774,42.6119655 L19.2606774,50.0253724 L19.2605605,50.0253724 Z" id="XMLID_53_"></path>
                            <path d="M57.5826573,0.28642069 C57.4057339,0.122868966 57.1773589,0.0372827586 56.9465282,0.0372827586 C56.807375,0.0372827586 56.6685726,0.0682344828 56.537254,0.132951724 L0.924375,27.4839586 C0.355951613,27.7640483 -0.00374193548,28.3460345 0.000116935483,28.9826552 C0.00397580645,29.6184552 0.36975,30.1964552 0.942266129,30.470331 L15.5991935,37.4724552 L44.9055645,13.3219034 L19.230625,39.2071586 L37.4895161,47.9299172 C37.7137984,48.0376621 37.9586613,48.0912414 38.2009516,48.0912414 C38.4076935,48.0912414 38.6124476,48.0534897 38.807379,47.9766966 C39.2326734,47.8081034 39.5706169,47.4704483 39.7393548,47.0439241 L57.8171129,1.31978621 C57.9602419,0.959972414 57.8669274,0.548572414 57.5826573,0.28642069 L57.5826573,0.28642069 Z" id="XMLID_52_"></path>
                        </g>
                    </g>
                </g>
            </g>
        </g>
    </g>
</svg>