<?xml version="1.0" encoding="UTF-8" standalone="no"?>
<svg width="53px" height="24px" viewBox="0 0 53 24" version="1.1" xmlns="http://www.w3.org/2000/svg" xmlns:xlink="http://www.w3.org/1999/xlink">
    <!-- Generator: Sketch 39 (31667) - http://www.bohemiancoding.com/sketch -->
    <title>Path 4</title>
    <desc>Created with Sketch.</desc>
    <defs></defs>
    <g id="Page-1" stroke="none" stroke-width="1" fill="none" fill-rule="evenodd">
        <g id="10-десятый-2" transform="translate(-841.000000, -226.000000)" stroke="#979797" fill="#D8D8D8">
            <g id="black-panel" transform="translate(81.000000, -62.000000)">
                <g id="icons" transform="translate(453.000000, 0.000000)">
                    <g id="Group-8">
                        <path d="M308,296.300781 C308,296.300781 315.583984,304.580078 317.389648,304.580078 C319.195312,304.580078 319.708496,304.333252 319.708496,304.333252 L320.078857,306.079102 C320.078857,306.079102 329.124512,310.568115 337.262451,310.568115 C345.400391,310.568115 350.097656,309.037842 350.097656,309.037842 L350.560791,306.889404 L352.445312,308.526123 L359.268066,305.159912 L353.137695,296.049805 L346.097168,299.029297 C346.097168,299.029297 336.503906,302.191895 328.662354,299.571045 C320.820801,296.950195 316.359375,289 316.359375,289 L308,296.300781 Z" id="Path-4"></path>
                    </g>
                </g>
            </g>
        </g>
    </g>
</svg>