<?xml version="1.0" encoding="UTF-8" standalone="no"?>
<svg width="95px" height="67px" viewBox="0 0 95 67" version="1.1" xmlns="http://www.w3.org/2000/svg" xmlns:xlink="http://www.w3.org/1999/xlink">
    <!-- Generator: Sketch 39 (31667) - http://www.bohemiancoding.com/sketch -->
    <title>Path 3</title>
    <desc>Created with Sketch.</desc>
    <defs></defs>
    <g id="Page-1" stroke="none" stroke-width="1" fill="none" fill-rule="evenodd">
        <g id="10-десятый-2" transform="translate(-907.000000, -186.000000)" stroke="#979797" fill="#D8D8D8">
            <g id="black-panel" transform="translate(81.000000, -62.000000)">
                <g id="icons" transform="translate(453.000000, 0.000000)">
                    <g id="Group-8">
                        <path d="M402.485352,291.733825 L390.150391,291.863708 L391.261719,287.279723 L385.556641,289.011169 C385.556641,289.011169 374,288.519958 374,277.083434 C374,265.646911 380.371094,263.535583 380.371094,263.535583 L381.361328,266.693786 C381.361328,266.693786 384.410156,259.971129 390.150391,258.748473 C395.890625,257.525817 403.382812,257.636169 405.568359,258.821716 C407.753906,260.007262 408.782422,255.891146 410.828125,255.37738 C412.873828,254.863613 415.59668,256.303161 415.59668,256.303161 L421.15332,251.182067 L423.996094,254.089294 L424.551758,249.320739 C424.551758,249.320739 439.666016,249.06195 441.397461,253.941833 C443.128906,258.821715 444.110352,260.321716 444.110352,260.321716 C444.110352,260.321716 448.415304,259.460171 450.676758,259.571716 C452.938211,259.68326 455.019531,260.859802 455.019531,260.859802 L455.204102,258.748473 C455.204102,258.748473 464.649414,260.833647 466.326172,265.712341 C468.00293,270.591034 465.085938,270.101989 465.085938,270.101989 L466.697266,272.260192 C466.697266,272.260192 464.354492,279.102965 459.779297,281.705505 C455.204102,284.308044 453.56543,284.798278 453.56543,284.798278 L451.148438,282.632262 L450.898438,285.539489 L440.749023,285.595153 C440.749023,285.595153 441.666016,289.568785 440.304688,290.716247 C438.943359,291.863708 435.862875,293.441086 433.007812,293.938903 C430.15275,294.43672 426.8125,293.068786 426.8125,293.068786 L411.125,314.812927 L402.485352,291.733825 Z" id="Path-3"></path>
                    </g>
                </g>
            </g>
        </g>
    </g>
</svg>