<?xml version="1.0" encoding="UTF-8" standalone="no"?>
<svg width="47px" height="29px" viewBox="0 0 47 29" version="1.1" xmlns="http://www.w3.org/2000/svg" xmlns:xlink="http://www.w3.org/1999/xlink">
    <!-- Generator: Sketch 39 (31667) - http://www.bohemiancoding.com/sketch -->
    <title>Path 6</title>
    <desc>Created with Sketch.</desc>
    <defs></defs>
    <g id="Page-1" stroke="none" stroke-width="1" fill="none" fill-rule="evenodd">
        <g id="10-десятый-2" transform="translate(-1004.000000, -157.000000)" stroke="#979797" fill="#D8D8D8">
            <g id="black-panel" transform="translate(81.000000, -62.000000)">
                <g id="icons" transform="translate(453.000000, 0.000000)">
                    <g id="Group-8">
                        <path d="M470.636281,246.70996 L477.739411,242.807725 L478.641591,243.383448 L479.37366,242.900893 L478.937565,242.122363 L488.278692,237.380879 L480.972755,233.028537 L493.234781,225.972114 L496.621766,226.953449 L495.859707,224.932272 L505.387169,219.677996 C505.387169,219.677996 516.17547,230.545699 515.739622,230.545699 C515.303773,230.545699 510.252303,232.457238 510.252303,232.457238 C510.252303,232.457238 506.874414,231.86529 506.130791,231.86529 C505.387169,231.86529 503.841664,232.813931 503.841664,232.813931 L504.65043,233.655638 L496.89242,236.065958 L502.317053,242.408996 L491.344137,244.849798 L488.064332,242.735452 L489.884916,244.772854 L470.636281,246.70996 Z" id="Path-6"></path>
                    </g>
                </g>
            </g>
        </g>
    </g>
</svg>