<?xml version="1.0" encoding="UTF-8" standalone="no"?>
<svg width="40px" height="40px" viewBox="0 0 40 40" version="1.1" xmlns="http://www.w3.org/2000/svg" xmlns:xlink="http://www.w3.org/1999/xlink">
    <!-- Generator: Sketch 39 (31667) - http://www.bohemiancoding.com/sketch -->
    <title>Capa_1</title>
    <desc>Created with Sketch.</desc>
    <defs></defs>
    <g id="Page-1" stroke="none" stroke-width="1" fill="none" fill-rule="evenodd">
        <g id="11-одинадцатый" transform="translate(-1163.000000, -36.000000)">
            <g id="Основа" transform="translate(81.000000, 36.000000)">
                <g id="interface" transform="translate(1082.000000, 0.000000)">
                    <g id="Capa_1">
                        <g id="Group">
                            <path d="M39.1910204,29.0950101 L37.454449,28.0981744 C37.569551,27.4639351 37.6401633,26.8133063 37.6401633,26.1458824 C37.6401633,25.4789452 37.569551,24.8284787 37.454449,24.1954564 L39.1910204,23.1985396 C39.9614694,22.7566734 40.2239184,21.7784178 39.7794286,21.0129006 L37.7420408,17.5045842 C37.2973878,16.7389047 36.3138776,16.4770791 35.5435918,16.9182961 L33.8080816,17.914645 C32.8114286,17.0717241 31.6603265,16.410142 30.4051429,15.9642191 L30.4051429,13.968357 C30.4051429,13.9046653 30.3749388,13.8500609 30.3683265,13.7875862 C30.1589388,13.9643813 29.9381224,14.1268966 29.6961633,14.2653144 L29.304,14.4902231 C29.3171429,14.7324949 29.3222041,14.9730629 29.3222041,15.2135497 C29.3222041,15.4546045 29.3171429,15.6965517 29.304,15.9395538 L29.6961633,16.1650304 C30.713551,16.748073 31.4710204,17.7286815 31.7728163,18.8537931 C32.081551,19.9976471 31.9231837,21.1920487 31.3281633,22.2151724 L29.0763265,26.0894118 C28.2835918,27.4547667 26.8033469,28.3029615 25.2168163,28.3029615 C24.4386939,28.3029615 23.6684898,28.0984178 22.9923265,27.7101826 L22.589551,27.4800811 C22.1842449,27.7401217 21.7654694,27.9797972 21.3339592,28.1988641 L21.3339592,28.6602028 C21.3339592,31.1022312 19.3358367,33.0889249 16.8782857,33.0889249 L14.7818776,33.0889249 L15.7705306,34.7902637 C16.2151837,35.5553753 17.1986939,35.8172819 17.9688163,35.3759838 L19.7072653,34.3784178 C20.702449,35.2206897 21.852,35.8811359 23.1086531,36.3255172 L23.1086531,38.3233266 C23.1086531,39.2066531 23.8293061,39.9229209 24.7186122,39.9229209 L28.7937143,39.9229209 C29.6829388,39.9229209 30.4050612,39.2066531 30.4050612,38.3233266 L30.4050612,36.3255172 C31.6602449,35.8809736 32.8097959,35.2200406 33.8048163,34.3777688 L35.5432653,35.3746856 C36.3136327,35.8166329 37.296898,35.5548884 37.7417143,34.7891278 L39.7790204,31.2808114 C40.224,30.5151318 39.9613878,29.5369574 39.1910204,29.0950101 L39.1910204,29.0950101 Z" id="Shape"></path>
                            <path d="M14.6293061,10.4104665 C11.9653061,10.4104665 9.79681633,12.5650304 9.79681633,15.2133874 C9.79681633,17.8618256 11.9652245,20.0170385 14.6293061,20.0170385 C17.2933878,20.0170385 19.4614694,17.8618256 19.4614694,15.2133874 C19.4613878,12.5650304 17.2933878,10.4104665 14.6293061,10.4104665 L14.6293061,10.4104665 Z" id="Shape"></path>
                            <path d="M18.656,28.6600406 L18.656,26.4541988 C20.0422857,25.9629209 21.3136327,25.2323732 22.4122449,24.3036917 L24.3305306,25.4040568 C24.6105306,25.5646247 24.9152653,25.6406491 25.2170612,25.6406491 C25.8307755,25.6406491 26.4281633,25.3240568 26.7577143,24.7572414 L29.0084898,20.8838134 C29.2437551,20.4783773 29.3093061,19.9961055 29.1862041,19.5428803 C29.0645714,19.0906288 28.7666939,18.704503 28.3585306,18.4705071 L26.4399184,17.3690061 C26.568,16.6677485 26.6441633,15.9508316 26.6441633,15.2132252 C26.6441633,14.4761866 26.568,13.759432 26.4399184,13.0594726 L28.356898,11.9591886 C28.7667755,11.7244625 29.0633469,11.3390669 29.1860408,10.8860852 C29.3091429,10.4336714 29.2435918,9.95156187 29.0083265,9.54588235 L26.757551,5.67115619 C26.5223673,5.26555781 26.1337959,4.96916836 25.6786122,4.84827586 C25.5272653,4.80811359 25.3727347,4.78782961 25.2183673,4.78782961 C24.909551,4.78782961 24.6022857,4.86855984 24.3289796,5.02507099 L22.414449,6.12478702 C21.3133061,5.19407708 20.0433469,4.46296146 18.6556735,3.97095335 L18.6556735,1.76649087 C18.6558367,0.790993915 17.8605714,0 16.8785306,0 L12.3769796,0 C11.3949388,0 10.5999184,0.790993915 10.5999184,1.76657201 L10.5999184,3.97103448 C9.21216327,4.4630426 7.94244898,5.19342799 6.84383673,6.12486815 L4.92408163,5.02385396 C4.652,4.86791075 4.34579592,4.7873428 4.03738776,4.7873428 C3.88293878,4.7873428 3.72710204,4.8074645 3.57673469,4.84778905 C3.1204898,4.96868154 2.73191837,5.26507099 2.49673469,5.67066937 L0.247346939,9.54539554 C-0.244653061,10.3903448 0.0484897959,11.4705071 0.896979592,11.9585396 L2.81567347,13.0595538 C2.6875102,13.7595132 2.6117551,14.4762677 2.6117551,15.2133063 C2.6117551,15.9509128 2.6875102,16.669858 2.81567347,17.3698174 L0.896979592,18.4713185 C0.0471020408,18.959432 -0.244571429,20.0395943 0.247346939,20.8838945 L2.49665306,24.7587018 C2.82620408,25.324787 3.4237551,25.6420284 4.03738776,25.6420284 C4.33926531,25.6420284 4.64408163,25.5658418 4.92408163,25.405355 L6.84383673,24.3044219 C7.9435102,25.2332657 9.21371429,25.9630832 10.5999184,26.4544422 L10.5999184,28.6603651 C10.5999184,29.6357809 11.3948571,30.4267748 12.3769796,30.4267748 L16.8785306,30.4267748 C17.8606531,30.4266937 18.656,29.6356998 18.656,28.6600406 L18.656,28.6600406 Z M7.11861224,15.2133874 C7.11861224,11.0974442 10.4876735,7.74855984 14.6293061,7.74855984 C18.7710204,7.74855984 22.1400816,11.0974442 22.1400816,15.2133874 C22.1400816,19.3298986 18.7710204,22.6790264 14.6293061,22.6790264 C10.4876735,22.6790264 7.11861224,19.3298986 7.11861224,15.2133874 L7.11861224,15.2133874 Z" id="Shape"></path>
                        </g>
                    </g>
                </g>
            </g>
        </g>
    </g>
</svg>